<svg xmlns="http://www.w3.org/2000/svg" width="900" height="420">
<rect width="900" height="420" fill="white" />
<line x1="60" y1="20" x2="60" y2="380" stroke="#333" />
<line x1="60" y1="380" x2="880" y2="380" stroke="#333" />
<line x1="60" y1="357.87" x2="880" y2="357.87" stroke="#d00" stroke-dasharray="4,4" />
<line x1="60" y1="335.74" x2="880" y2="335.74" stroke="#0a0" stroke-dasharray="4,4" />
<path d="M 60.00,380.00 L 81.03,380.00 L 102.05,380.00 L 123.08,380.00 L 144.10,380.00 L 165.13,380.00 L 186.15,380.00 L 207.18,380.00 L 228.21,380.00 L 249.23,380.00 L 270.26,380.00 L 291.28,380.00 L 312.31,380.00 L 333.33,380.00 L 354.36,380.00 L 375.38,380.00 L 396.41,380.00 L 417.44,380.00 L 438.46,380.00 L 459.49,380.00 L 480.51,380.00 L 501.54,380.00 L 522.56,380.00 L 543.59,380.00 L 564.62,380.00 L 585.64,380.00 L 606.67,380.00 L 627.69,380.00 L 648.72,380.00 L 669.74,380.00 L 690.77,380.00 L 711.79,380.00 L 732.82,380.00 L 753.85,380.00 L 774.87,380.00 L 858.97,380.00 L 880.00,380.00" fill="none" stroke="#999" stroke-width="1" />
<path d="M 60.00,28.85 L 81.03,88.96 L 102.05,28.85 L 123.08,131.50 L 144.10,88.96 L 165.13,207.25 L 186.15,163.19 L 207.18,187.72 L 228.21,163.19 L 249.23,302.16 L 270.26,308.69 L 291.28,355.66 L 312.31,357.88 L 333.33,362.62 L 354.36,370.49 L 375.38,373.06 L 396.41,374.89 L 417.44,375.61 L 438.46,375.44 L 459.49,374.91 L 480.51,373.00 L 501.54,370.33 L 522.56,364.38 L 543.59,353.78 L 564.62,341.22 L 585.64,323.03 L 606.67,289.77 L 627.69,247.61 L 648.72,88.96 L 669.74,28.85 L 690.77,131.50 L 711.79,28.85 L 732.82,88.96 L 753.85,88.96 L 774.87,28.85 L 858.97,28.85 L 880.00,28.85" fill="none" stroke="#999" stroke-width="1" />
<path d="M 60.00,380.00 L 81.03,380.00 L 102.05,380.00 L 123.08,380.00 L 144.10,380.00 L 165.13,380.00 L 186.15,380.00 L 207.18,380.00 L 228.21,380.00 L 249.23,380.00 L 270.26,380.00 L 291.28,380.00 L 312.31,380.00 L 333.33,380.00 L 354.36,380.00 L 375.38,380.00 L 396.41,380.00 L 417.44,380.00 L 438.46,380.00 L 459.49,380.00 L 480.51,380.00 L 501.54,380.00 L 522.56,380.00 L 543.59,380.00 L 564.62,380.00 L 585.64,380.00 L 606.67,380.00 L 627.69,380.00 L 648.72,380.00 L 669.74,380.00 L 690.77,380.00 L 711.79,380.00 L 732.82,380.00 L 753.85,380.00 L 774.87,380.00 L 858.97,380.00 L 880.00,380.00" fill="none" stroke="#1f77b4" stroke-width="2" />
<text x="60" y="16" font-size="12" fill="#333">High Regime - 1 Min Left</text>
<text x="390.0" y="414" font-size="12" fill="#333">Delta (price - strike)</text>
<text x="10" y="210.0" font-size="12" fill="#333" transform="rotate(-90 10,210.0)">Reversal Prob</text>
</svg>