<svg xmlns="http://www.w3.org/2000/svg" width="900" height="420">
<rect width="900" height="420" fill="white" />
<line x1="60" y1="20" x2="60" y2="380" stroke="#333" />
<line x1="60" y1="380" x2="880" y2="380" stroke="#333" />
<line x1="60" y1="357.87" x2="880" y2="357.87" stroke="#d00" stroke-dasharray="4,4" />
<line x1="60" y1="335.74" x2="880" y2="335.74" stroke="#0a0" stroke-dasharray="4,4" />
<path d="M 60.00,380.00 L 123.08,380.00 L 186.15,380.00 L 249.23,380.00 L 312.31,380.00 L 375.38,377.96 L 438.46,317.87 L 501.54,309.21 L 564.62,376.87 L 627.69,380.00 L 690.77,380.00 L 753.85,380.00 L 816.92,380.00 L 880.00,380.00" fill="none" stroke="#999" stroke-width="1" />
<path d="M 60.00,28.85 L 123.08,163.19 L 186.15,284.71 L 249.23,350.61 L 312.31,371.09 L 375.38,368.95 L 438.46,294.47 L 501.54,284.21 L 564.62,366.84 L 627.69,371.09 L 690.77,352.06 L 753.85,272.68 L 816.92,131.50 L 880.00,28.85" fill="none" stroke="#999" stroke-width="1" />
<path d="M 60.00,380.00 L 123.08,380.00 L 186.15,380.00 L 249.23,380.00 L 312.31,380.00 L 375.38,375.23 L 438.46,306.92 L 501.54,297.44 L 564.62,373.56 L 627.69,380.00 L 690.77,380.00 L 753.85,380.00 L 816.92,380.00 L 880.00,380.00" fill="none" stroke="#1f77b4" stroke-width="2" />
<text x="60" y="16" font-size="12" fill="#333">Med Regime - 3 Min Left</text>
<text x="390.0" y="414" font-size="12" fill="#333">Delta (price - strike)</text>
<text x="10" y="210.0" font-size="12" fill="#333" transform="rotate(-90 10,210.0)">Reversal Prob</text>
</svg>