<svg xmlns="http://www.w3.org/2000/svg" width="900" height="420">
<rect width="900" height="420" fill="white" />
<line x1="60" y1="20" x2="60" y2="380" stroke="#333" />
<line x1="60" y1="380" x2="880" y2="380" stroke="#333" />
<line x1="60" y1="357.87" x2="880" y2="357.87" stroke="#d00" stroke-dasharray="4,4" />
<line x1="60" y1="335.74" x2="880" y2="335.74" stroke="#0a0" stroke-dasharray="4,4" />
<path d="M 60.00,380.00 L 144.10,380.00 L 165.13,380.00 L 186.15,380.00 L 207.18,380.00 L 228.21,380.00 L 249.23,380.00 L 270.26,380.00 L 291.28,380.00 L 312.31,380.00 L 333.33,380.00 L 354.36,380.00 L 375.38,379.17 L 396.41,374.31 L 417.44,377.33 L 438.46,357.41 L 459.49,273.01 L 480.51,267.95 L 501.54,354.88 L 522.56,374.20 L 543.59,380.00 L 564.62,379.01 L 585.64,380.00 L 606.67,380.00 L 627.69,380.00 L 648.72,380.00 L 669.74,380.00 L 690.77,380.00 L 711.79,380.00 L 732.82,380.00 L 753.85,380.00 L 774.87,380.00 L 816.92,380.00 L 880.00,380.00" fill="none" stroke="#999" stroke-width="1" />
<path d="M 60.00,28.85 L 144.10,88.96 L 165.13,28.85 L 186.15,28.85 L 207.18,88.96 L 228.21,187.72 L 249.23,207.25 L 270.26,223.19 L 291.28,284.71 L 312.31,318.94 L 333.33,316.66 L 354.36,356.00 L 375.38,354.41 L 396.41,349.83 L 417.44,362.73 L 438.46,333.57 L 459.49,235.07 L 480.51,229.86 L 501.54,330.34 L 522.56,355.87 L 543.59,370.05 L 564.62,349.78 L 585.64,342.91 L 606.67,328.23 L 627.69,305.57 L 648.72,257.18 L 669.74,236.43 L 690.77,28.85 L 711.79,88.96 L 732.82,28.85 L 753.85,28.85 L 774.87,28.85 L 816.92,28.85 L 880.00,88.96" fill="none" stroke="#999" stroke-width="1" />
<path d="M 60.00,380.00 L 144.10,380.00 L 165.13,380.00 L 186.15,380.00 L 207.18,380.00 L 228.21,380.00 L 249.23,380.00 L 270.26,380.00 L 291.28,380.00 L 312.31,380.00 L 333.33,380.00 L 354.36,380.00 L 375.38,375.29 L 396.41,366.75 L 417.44,373.17 L 438.46,347.44 L 459.49,254.91 L 480.51,249.71 L 501.54,344.50 L 522.56,368.08 L 543.59,380.00 L 564.62,374.40 L 585.64,380.00 L 606.67,380.00 L 627.69,380.00 L 648.72,380.00 L 669.74,380.00 L 690.77,380.00 L 711.79,380.00 L 732.82,380.00 L 753.85,380.00 L 774.87,380.00 L 816.92,380.00 L 880.00,380.00" fill="none" stroke="#1f77b4" stroke-width="2" />
<text x="60" y="16" font-size="12" fill="#333">High Regime - 4 Min Left</text>
<text x="390.0" y="414" font-size="12" fill="#333">Delta (price - strike)</text>
<text x="10" y="210.0" font-size="12" fill="#333" transform="rotate(-90 10,210.0)">Reversal Prob</text>
</svg>