<svg xmlns="http://www.w3.org/2000/svg" width="900" height="420">
<rect width="900" height="420" fill="white" />
<line x1="60" y1="20" x2="60" y2="380" stroke="#333" />
<line x1="60" y1="380" x2="880" y2="380" stroke="#333" />
<line x1="60" y1="349.05" x2="880" y2="349.05" stroke="#d00" stroke-dasharray="4,4" />
<line x1="60" y1="318.09" x2="880" y2="318.09" stroke="#0a0" stroke-dasharray="4,4" />
<path d="M 60.00,380.00 L 196.67,380.00 L 333.33,375.04 L 470.00,300.28 L 606.67,291.97 L 743.33,378.47 L 880.00,380.00" fill="none" stroke="#999" stroke-width="1" />
<path d="M 60.00,32.38 L 196.67,311.74 L 333.33,348.09 L 470.00,275.00 L 606.67,265.91 L 743.33,360.04 L 880.00,280.25" fill="none" stroke="#999" stroke-width="1" />
<path d="M 60.00,380.00 L 196.67,380.00 L 333.33,367.30 L 470.00,288.36 L 606.67,279.62 L 743.33,374.42 L 880.00,380.00" fill="none" stroke="#1f77b4" stroke-width="2" />
<text x="60" y="16" font-size="12" fill="#333">Low Regime - 4 Min Left</text>
<text x="390.0" y="414" font-size="12" fill="#333">Delta (price - strike)</text>
<text x="10" y="210.0" font-size="12" fill="#333" transform="rotate(-90 10,210.0)">Reversal Prob</text>
</svg>