<svg xmlns="http://www.w3.org/2000/svg" width="900" height="420">
<rect width="900" height="420" fill="white" />
<line x1="60" y1="20" x2="60" y2="380" stroke="#333" />
<line x1="60" y1="380" x2="880" y2="380" stroke="#333" />
<line x1="60" y1="357.87" x2="880" y2="357.87" stroke="#d00" stroke-dasharray="4,4" />
<line x1="60" y1="335.74" x2="880" y2="335.74" stroke="#0a0" stroke-dasharray="4,4" />
<path d="M 60.00,380.00 L 128.33,380.00 L 151.11,380.00 L 173.89,380.00 L 196.67,380.00 L 219.44,380.00 L 242.22,380.00 L 265.00,380.00 L 287.78,380.00 L 310.56,380.00 L 333.33,380.00 L 356.11,379.21 L 378.89,374.31 L 401.67,373.58 L 424.44,348.55 L 447.22,258.90 L 470.00,254.54 L 492.78,347.03 L 515.56,370.44 L 538.33,376.90 L 561.11,380.00 L 583.89,378.40 L 606.67,380.00 L 629.44,380.00 L 652.22,380.00 L 675.00,380.00 L 720.56,380.00 L 743.33,380.00 L 766.11,380.00 L 834.44,380.00 L 857.22,380.00 L 880.00,380.00" fill="none" stroke="#999" stroke-width="1" />
<path d="M 60.00,28.85 L 128.33,28.85 L 151.11,88.96 L 173.89,28.85 L 196.67,131.50 L 219.44,163.19 L 242.22,257.18 L 265.00,272.68 L 287.78,308.69 L 310.56,318.94 L 333.33,345.19 L 356.11,355.65 L 378.89,349.83 L 401.67,353.36 L 424.44,323.49 L 447.22,219.05 L 470.00,216.33 L 492.78,320.86 L 515.56,348.48 L 538.33,354.04 L 561.11,360.86 L 583.89,332.67 L 606.67,311.56 L 629.44,308.69 L 652.22,236.43 L 675.00,163.19 L 720.56,28.85 L 743.33,88.96 L 766.11,28.85 L 834.44,28.85 L 857.22,88.96 L 880.00,28.85" fill="none" stroke="#999" stroke-width="1" />
<path d="M 60.00,380.00 L 128.33,380.00 L 151.11,380.00 L 173.89,380.00 L 196.67,380.00 L 219.44,380.00 L 242.22,380.00 L 265.00,380.00 L 287.78,380.00 L 310.56,380.00 L 333.33,380.00 L 356.11,375.53 L 378.89,366.75 L 401.67,366.82 L 424.44,337.65 L 447.22,239.73 L 470.00,236.09 L 492.78,335.63 L 515.56,362.51 L 538.33,370.91 L 561.11,380.00 L 583.89,370.97 L 606.67,380.00 L 629.44,380.00 L 652.22,380.00 L 675.00,380.00 L 720.56,380.00 L 743.33,380.00 L 766.11,380.00 L 834.44,380.00 L 857.22,380.00 L 880.00,380.00" fill="none" stroke="#1f77b4" stroke-width="2" />
<text x="60" y="16" font-size="12" fill="#333">High Regime - 5 Min Left</text>
<text x="390.0" y="414" font-size="12" fill="#333">Delta (price - strike)</text>
<text x="10" y="210.0" font-size="12" fill="#333" transform="rotate(-90 10,210.0)">Reversal Prob</text>
</svg>