<svg xmlns="http://www.w3.org/2000/svg" width="900" height="420">
<rect width="900" height="420" fill="white" />
<line x1="60" y1="20" x2="60" y2="380" stroke="#333" />
<line x1="60" y1="380" x2="880" y2="380" stroke="#333" />
<line x1="60" y1="357.87" x2="880" y2="357.87" stroke="#d00" stroke-dasharray="4,4" />
<line x1="60" y1="335.74" x2="880" y2="335.74" stroke="#0a0" stroke-dasharray="4,4" />
<path d="M 60.00,380.00 L 209.09,380.00 L 246.36,380.00 L 283.64,380.00 L 302.27,380.00 L 320.91,380.00 L 339.55,380.00 L 358.18,380.00 L 376.82,380.00 L 395.45,380.00 L 414.09,380.00 L 432.73,380.00 L 451.36,380.00 L 470.00,378.42 L 488.64,379.03 L 507.27,370.96 L 525.91,298.63 L 544.55,282.91 L 563.18,364.73 L 581.82,375.34 L 600.45,380.00 L 619.09,380.00 L 637.73,380.00 L 656.36,380.00 L 675.00,380.00 L 693.64,380.00 L 712.27,380.00 L 730.91,380.00 L 749.55,380.00 L 768.18,380.00 L 786.82,380.00 L 842.73,380.00 L 880.00,380.00" fill="none" stroke="#999" stroke-width="1" />
<path d="M 60.00,28.85 L 209.09,28.85 L 246.36,88.96 L 283.64,131.50 L 302.27,207.25 L 320.91,28.85 L 339.55,187.72 L 358.18,247.61 L 376.82,279.05 L 395.45,311.56 L 414.09,331.21 L 432.73,358.44 L 451.36,365.81 L 470.00,359.59 L 488.64,367.30 L 507.27,352.99 L 525.91,263.86 L 544.55,245.99 L 563.18,344.46 L 581.82,358.29 L 600.45,369.75 L 619.09,362.80 L 637.73,348.42 L 656.36,341.22 L 675.00,305.57 L 693.64,187.72 L 712.27,247.61 L 730.91,88.96 L 749.55,131.50 L 768.18,88.96 L 786.82,131.50 L 842.73,28.85 L 880.00,88.96" fill="none" stroke="#999" stroke-width="1" />
<path d="M 60.00,380.00 L 209.09,380.00 L 246.36,380.00 L 283.64,380.00 L 302.27,380.00 L 320.91,380.00 L 339.55,380.00 L 358.18,380.00 L 376.82,380.00 L 395.45,380.00 L 414.09,380.00 L 432.73,380.00 L 451.36,380.00 L 470.00,374.25 L 488.64,376.46 L 507.27,364.29 L 525.91,282.35 L 544.55,265.42 L 563.18,356.58 L 581.82,369.87 L 600.45,380.00 L 619.09,380.00 L 637.73,380.00 L 656.36,380.00 L 675.00,380.00 L 693.64,380.00 L 712.27,380.00 L 730.91,380.00 L 749.55,380.00 L 768.18,380.00 L 786.82,380.00 L 842.73,380.00 L 880.00,380.00" fill="none" stroke="#1f77b4" stroke-width="2" />
<text x="60" y="16" font-size="12" fill="#333">High Regime - 3 Min Left</text>
<text x="390.0" y="414" font-size="12" fill="#333">Delta (price - strike)</text>
<text x="10" y="210.0" font-size="12" fill="#333" transform="rotate(-90 10,210.0)">Reversal Prob</text>
</svg>