<svg xmlns="http://www.w3.org/2000/svg" width="900" height="420">
<rect width="900" height="420" fill="white" />
<line x1="60" y1="20" x2="60" y2="380" stroke="#333" />
<line x1="60" y1="380" x2="880" y2="380" stroke="#333" />
<line x1="60" y1="340.39" x2="880" y2="340.39" stroke="#d00" stroke-dasharray="4,4" />
<line x1="60" y1="300.79" x2="880" y2="300.79" stroke="#0a0" stroke-dasharray="4,4" />
<path d="M 60.00,380.00 L 196.67,380.00 L 333.33,373.94 L 470.00,249.47 L 606.67,248.01 L 743.33,372.35 L 880.00,380.00" fill="none" stroke="#999" stroke-width="1" />
<path d="M 60.00,35.84 L 196.67,266.64 L 333.33,340.93 L 470.00,214.46 L 606.67,212.66 L 743.33,339.10 L 880.00,187.92" fill="none" stroke="#999" stroke-width="1" />
<path d="M 60.00,380.00 L 196.67,380.00 L 333.33,364.47 L 470.00,232.77 L 606.67,231.14 L 743.33,362.16 L 880.00,380.00" fill="none" stroke="#1f77b4" stroke-width="2" />
<text x="60" y="16" font-size="12" fill="#333">Low Regime - 5 Min Left</text>
<text x="390.0" y="414" font-size="12" fill="#333">Delta (price - strike)</text>
<text x="10" y="210.0" font-size="12" fill="#333" transform="rotate(-90 10,210.0)">Reversal Prob</text>
</svg>