<svg xmlns="http://www.w3.org/2000/svg" width="900" height="420">
<rect width="900" height="420" fill="white" />
<line x1="60" y1="20" x2="60" y2="380" stroke="#333" />
<line x1="60" y1="380" x2="880" y2="380" stroke="#333" />
<line x1="60" y1="357.87" x2="880" y2="357.87" stroke="#d00" stroke-dasharray="4,4" />
<line x1="60" y1="335.74" x2="880" y2="335.74" stroke="#0a0" stroke-dasharray="4,4" />
<path d="M 60.00,380.00 L 199.57,380.00 L 234.47,380.00 L 251.91,380.00 L 269.36,380.00 L 286.81,380.00 L 304.26,380.00 L 321.70,380.00 L 339.15,380.00 L 356.60,380.00 L 374.04,380.00 L 391.49,380.00 L 408.94,380.00 L 426.38,380.00 L 443.83,380.00 L 461.28,380.00 L 478.72,380.00 L 496.17,377.32 L 513.62,310.17 L 531.06,306.91 L 548.51,375.31 L 565.96,379.71 L 583.40,380.00 L 600.85,380.00 L 618.30,380.00 L 635.74,380.00 L 653.19,380.00 L 670.64,380.00 L 688.09,380.00 L 705.53,380.00 L 722.98,380.00 L 740.43,380.00 L 757.87,380.00 L 775.32,380.00 L 810.21,380.00 L 862.55,380.00 L 880.00,380.00" fill="none" stroke="#999" stroke-width="1" />
<path d="M 60.00,28.85 L 199.57,28.85 L 234.47,28.85 L 251.91,28.85 L 269.36,88.96 L 286.81,88.96 L 304.26,163.19 L 321.70,163.19 L 339.15,257.18 L 356.60,163.19 L 374.04,257.18 L 391.49,308.69 L 408.94,348.42 L 426.38,359.23 L 443.83,364.24 L 461.28,369.99 L 478.72,373.22 L 496.17,365.56 L 513.62,275.60 L 531.06,272.77 L 548.51,360.39 L 565.96,370.85 L 583.40,369.87 L 600.85,364.09 L 618.30,353.78 L 635.74,336.23 L 653.19,324.88 L 670.64,207.25 L 688.09,207.25 L 705.53,187.72 L 722.98,131.50 L 740.43,28.85 L 757.87,88.96 L 775.32,88.96 L 810.21,28.85 L 862.55,28.85 L 880.00,28.85" fill="none" stroke="#999" stroke-width="1" />
<path d="M 60.00,380.00 L 199.57,380.00 L 234.47,380.00 L 251.91,380.00 L 269.36,380.00 L 286.81,380.00 L 304.26,380.00 L 321.70,380.00 L 339.15,380.00 L 356.60,380.00 L 374.04,380.00 L 391.49,380.00 L 408.94,380.00 L 426.38,380.00 L 443.83,380.00 L 461.28,380.00 L 478.72,380.00 L 496.17,373.75 L 513.62,294.20 L 531.06,291.06 L 548.51,370.35 L 565.96,378.36 L 583.40,380.00 L 600.85,380.00 L 618.30,380.00 L 635.74,380.00 L 653.19,380.00 L 670.64,380.00 L 688.09,380.00 L 705.53,380.00 L 722.98,380.00 L 740.43,380.00 L 757.87,380.00 L 775.32,380.00 L 810.21,380.00 L 862.55,380.00 L 880.00,380.00" fill="none" stroke="#1f77b4" stroke-width="2" />
<text x="60" y="16" font-size="12" fill="#333">High Regime - 2 Min Left</text>
<text x="390.0" y="414" font-size="12" fill="#333">Delta (price - strike)</text>
<text x="10" y="210.0" font-size="12" fill="#333" transform="rotate(-90 10,210.0)">Reversal Prob</text>
</svg>