<svg xmlns="http://www.w3.org/2000/svg" width="900" height="420">
<rect width="900" height="420" fill="white" />
<line x1="60" y1="20" x2="60" y2="380" stroke="#333" />
<line x1="60" y1="380" x2="880" y2="380" stroke="#333" />
<line x1="60" y1="344.70" x2="880" y2="344.70" stroke="#d00" stroke-dasharray="4,4" />
<line x1="60" y1="309.40" x2="880" y2="309.40" stroke="#0a0" stroke-dasharray="4,4" />
<path d="M 60.00,380.00 L 177.14,380.00 L 294.29,380.00 L 411.43,380.00 L 528.57,380.00 L 645.71,380.00 L 762.86,380.00 L 880.00,380.00" fill="none" stroke="#999" stroke-width="1" />
<path d="M 60.00,73.24 L 177.14,308.33 L 294.29,369.14 L 411.43,377.72 L 528.57,377.65 L 645.71,370.13 L 762.86,261.26 L 880.00,34.12" fill="none" stroke="#999" stroke-width="1" />
<path d="M 60.00,380.00 L 177.14,380.00 L 294.29,380.00 L 411.43,380.00 L 528.57,380.00 L 645.71,380.00 L 762.86,380.00 L 880.00,380.00" fill="none" stroke="#1f77b4" stroke-width="2" />
<text x="60" y="16" font-size="12" fill="#333">Low Regime - 1 Min Left</text>
<text x="390.0" y="414" font-size="12" fill="#333">Delta (price - strike)</text>
<text x="10" y="210.0" font-size="12" fill="#333" transform="rotate(-90 10,210.0)">Reversal Prob</text>
</svg>