<svg xmlns="http://www.w3.org/2000/svg" width="900" height="420">
<rect width="900" height="420" fill="white" />
<line x1="60" y1="20" x2="60" y2="380" stroke="#333" />
<line x1="60" y1="380" x2="880" y2="380" stroke="#333" />
<line x1="60" y1="353.44" x2="880" y2="353.44" stroke="#d00" stroke-dasharray="4,4" />
<line x1="60" y1="326.87" x2="880" y2="326.87" stroke="#0a0" stroke-dasharray="4,4" />
<path d="M 60.00,380.00 L 177.14,380.00 L 294.29,379.60 L 411.43,347.64 L 528.57,341.61 L 645.71,378.93 L 762.86,380.00 L 880.00,380.00" fill="none" stroke="#999" stroke-width="1" />
<path d="M 60.00,119.74 L 177.14,326.07 L 294.29,367.35 L 411.43,331.46 L 528.57,324.21 L 645.71,366.02 L 762.86,294.40 L 880.00,30.63" fill="none" stroke="#999" stroke-width="1" />
<path d="M 60.00,380.00 L 177.14,380.00 L 294.29,377.73 L 411.43,340.30 L 528.57,333.64 L 645.71,376.11 L 762.86,380.00 L 880.00,380.00" fill="none" stroke="#1f77b4" stroke-width="2" />
<text x="60" y="16" font-size="12" fill="#333">Low Regime - 2 Min Left</text>
<text x="390.0" y="414" font-size="12" fill="#333">Delta (price - strike)</text>
<text x="10" y="210.0" font-size="12" fill="#333" transform="rotate(-90 10,210.0)">Reversal Prob</text>
</svg>