<svg xmlns="http://www.w3.org/2000/svg" width="900" height="420">
<rect width="900" height="420" fill="white" />
<line x1="60" y1="20" x2="60" y2="380" stroke="#333" />
<line x1="60" y1="380" x2="880" y2="380" stroke="#333" />
<line x1="60" y1="357.87" x2="880" y2="357.87" stroke="#d00" stroke-dasharray="4,4" />
<line x1="60" y1="335.74" x2="880" y2="335.74" stroke="#0a0" stroke-dasharray="4,4" />
<path d="M 60.00,380.00 L 114.67,380.00 L 169.33,380.00 L 224.00,380.00 L 278.67,380.00 L 333.33,380.00 L 388.00,380.00 L 442.67,380.00 L 497.33,380.00 L 552.00,380.00 L 606.67,380.00 L 661.33,380.00 L 716.00,380.00 L 770.67,380.00 L 825.33,380.00 L 880.00,380.00" fill="none" stroke="#999" stroke-width="1" />
<path d="M 60.00,28.85 L 114.67,28.85 L 169.33,88.96 L 224.00,318.94 L 278.67,356.66 L 333.33,371.36 L 388.00,376.48 L 442.67,377.61 L 497.33,377.60 L 552.00,376.43 L 606.67,371.58 L 661.33,356.00 L 716.00,302.16 L 770.67,131.50 L 825.33,28.85 L 880.00,28.85" fill="none" stroke="#999" stroke-width="1" />
<path d="M 60.00,380.00 L 114.67,380.00 L 169.33,380.00 L 224.00,380.00 L 278.67,380.00 L 333.33,380.00 L 388.00,380.00 L 442.67,380.00 L 497.33,380.00 L 552.00,380.00 L 606.67,380.00 L 661.33,380.00 L 716.00,380.00 L 770.67,380.00 L 825.33,380.00 L 880.00,380.00" fill="none" stroke="#1f77b4" stroke-width="2" />
<text x="60" y="16" font-size="12" fill="#333">Med Regime - 1 Min Left</text>
<text x="390.0" y="414" font-size="12" fill="#333">Delta (price - strike)</text>
<text x="10" y="210.0" font-size="12" fill="#333" transform="rotate(-90 10,210.0)">Reversal Prob</text>
</svg>